# xmcd
#
# Track frame offsets:
#	150
#	9468
#	20792
#	29277
#	39993
#	48854
#	57232
#	67639
#	78562
#	86452
#	96592
#	105262
#	115704
#	124212
#	132108
#	141679
#	151513
#	162697
#	172284
#	181032
#	190369
#	198298
#	209717
#	222086
#
# Disc length: 3069 seconds
# Revision: 1
# Processed by: cddbd v1.5.2PL0 Copyright (c) Steve Scherf et al.
# Submitted via: dBpowerAMP V12.0
#
DISCID=4e0bfb18
DTITLE=Johnny Cash - Inspiration CD 2
DYEAR=2010
DGENRE=Country
TTITLE0=It Was Jesus
TTITLE1=I Saw A Man
TTITLE2=Are All The Children In?
TTITLE3=The Old Account
TTITLE4=Lead Me Gently Home
TTITLE5=Swing Low, Sweet Chariot
TTITLE6=Snow In His Hair
TTITLE7=Lead Me Father
TTITLE8=I Call Him
TTITLE9=These Things Shall Pass
TTITLE10=He'll Be A Friend
TTITLE11=God Will
TTITLE12=Drink To Me
TTITLE13=Five Feet High And Rising
TTITLE14=The Man On The Hill
TTITLE15=Hank And Joe And Me
TTITLE16=Clementine
TTITLE17=Great Speckled Bird
TTITLE18=I Want To Go Home
TTITLE19=The Caretaker
TTITLE20=Old Apache Squaw
TTITLE21=Don't Step On Mother's Rose
TTITLE22=My Grandfather's Clock
TTITLE23=It Could Be You (Instead Of Him)
EXTD=
EXTT0=
EXTT1=
EXTT2=
EXTT3=
EXTT4=
EXTT5=
EXTT6=
EXTT7=
EXTT8=
EXTT9=
EXTT10=
EXTT11=
EXTT12=
EXTT13=
EXTT14=
EXTT15=
EXTT16=
EXTT17=
EXTT18=
EXTT19=
EXTT20=
EXTT21=
EXTT22=
EXTT23=
PLAYORDER=
